<mxfile host="65bd71144e">
    <diagram id="UzP2XSc_S8kgLPtnYf6j" name="Page-1">
        <mxGraphModel dx="574" dy="354" grid="1" gridSize="10" guides="1" tooltips="1" connect="1" arrows="1" fold="1" page="1" pageScale="1" pageWidth="850" pageHeight="1100" math="0" shadow="0">
            <root>
                <mxCell id="0"/>
                <mxCell id="1" parent="0"/>
                <mxCell id="3" value="Product" style="shape=umlLifeline;perimeter=lifelinePerimeter;whiteSpace=wrap;html=1;container=1;collapsible=0;recursiveResize=0;outlineConnect=0;" vertex="1" parent="1">
                    <mxGeometry x="410" y="120" width="100" height="300" as="geometry"/>
                </mxCell>
                <mxCell id="22" value="" style="html=1;points=[];perimeter=orthogonalPerimeter;" vertex="1" parent="3">
                    <mxGeometry x="45" y="140" width="10" height="80" as="geometry"/>
                </mxCell>
                <mxCell id="4" value="Database" style="shape=umlLifeline;perimeter=lifelinePerimeter;whiteSpace=wrap;html=1;container=1;collapsible=0;recursiveResize=0;outlineConnect=0;" vertex="1" parent="1">
                    <mxGeometry x="600" y="120" width="100" height="300" as="geometry"/>
                </mxCell>
                <mxCell id="23" value="" style="html=1;points=[];perimeter=orthogonalPerimeter;" vertex="1" parent="4">
                    <mxGeometry x="50" y="90" width="10" height="80" as="geometry"/>
                </mxCell>
                <mxCell id="5" value="Admin" style="shape=umlLifeline;perimeter=lifelinePerimeter;whiteSpace=wrap;html=1;container=1;collapsible=0;recursiveResize=0;outlineConnect=0;" vertex="1" parent="1">
                    <mxGeometry x="240" y="120" width="100" height="300" as="geometry"/>
                </mxCell>
                <mxCell id="21" value="" style="html=1;points=[];perimeter=orthogonalPerimeter;" vertex="1" parent="5">
                    <mxGeometry x="50" y="100" width="10" height="80" as="geometry"/>
                </mxCell>
                <mxCell id="12" value="" style="shape=umlLifeline;participant=umlActor;perimeter=lifelinePerimeter;whiteSpace=wrap;html=1;container=1;collapsible=0;recursiveResize=0;verticalAlign=top;spacingTop=36;outlineConnect=0;" vertex="1" parent="1">
                    <mxGeometry x="120" y="120" width="40" height="300" as="geometry"/>
                </mxCell>
                <mxCell id="15" value="" style="html=1;points=[];perimeter=orthogonalPerimeter;" vertex="1" parent="12">
                    <mxGeometry x="20" y="70" width="10" height="80" as="geometry"/>
                </mxCell>
                <mxCell id="14" value="Customer" style="text;html=1;align=center;verticalAlign=middle;resizable=0;points=[];autosize=1;strokeColor=none;fillColor=none;" vertex="1" parent="1">
                    <mxGeometry x="100" y="90" width="80" height="30" as="geometry"/>
                </mxCell>
                <mxCell id="16" value="" style="endArrow=classic;html=1;exitX=1.152;exitY=0.812;exitDx=0;exitDy=0;exitPerimeter=0;" edge="1" parent="1" source="15" target="5">
                    <mxGeometry relative="1" as="geometry">
                        <mxPoint x="150" y="190" as="sourcePoint"/>
                        <mxPoint x="250" y="190" as="targetPoint"/>
                    </mxGeometry>
                </mxCell>
                <mxCell id="17" value="login()" style="edgeLabel;resizable=0;html=1;align=center;verticalAlign=middle;" connectable="0" vertex="1" parent="16">
                    <mxGeometry relative="1" as="geometry">
                        <mxPoint x="-2" as="offset"/>
                    </mxGeometry>
                </mxCell>
                <mxCell id="18" value="register()" style="endArrow=classic;html=1;exitX=1.221;exitY=0.105;exitDx=0;exitDy=0;exitPerimeter=0;" edge="1" parent="1" source="15" target="5">
                    <mxGeometry relative="1" as="geometry">
                        <mxPoint x="60" y="240" as="sourcePoint"/>
                        <mxPoint x="160" y="240" as="targetPoint"/>
                    </mxGeometry>
                </mxCell>
                <mxCell id="24" value="" style="endArrow=classic;html=1;entryX=0.5;entryY=0;entryDx=0;entryDy=0;entryPerimeter=0;" edge="1" parent="1" source="21" target="22">
                    <mxGeometry relative="1" as="geometry">
                        <mxPoint x="460" y="240" as="sourcePoint"/>
                        <mxPoint x="560" y="240" as="targetPoint"/>
                    </mxGeometry>
                </mxCell>
                <mxCell id="25" value="manageproduct()" style="edgeLabel;resizable=0;html=1;align=center;verticalAlign=middle;" connectable="0" vertex="1" parent="24">
                    <mxGeometry relative="1" as="geometry">
                        <mxPoint x="1" as="offset"/>
                    </mxGeometry>
                </mxCell>
                <mxCell id="26" value="" style="endArrow=classic;html=1;exitX=-0.331;exitY=0.588;exitDx=0;exitDy=0;exitPerimeter=0;" edge="1" parent="1" source="23" target="22">
                    <mxGeometry relative="1" as="geometry">
                        <mxPoint x="460" y="240" as="sourcePoint"/>
                        <mxPoint x="560" y="240" as="targetPoint"/>
                    </mxGeometry>
                </mxCell>
                <mxCell id="27" value="givesproduct_info()" style="edgeLabel;resizable=0;html=1;align=center;verticalAlign=middle;" connectable="0" vertex="1" parent="26">
                    <mxGeometry relative="1" as="geometry"/>
                </mxCell>
                <mxCell id="28" value="" style="endArrow=classic;html=1;exitX=1.031;exitY=0.342;exitDx=0;exitDy=0;exitPerimeter=0;" edge="1" parent="1" source="22" target="4">
                    <mxGeometry relative="1" as="geometry">
                        <mxPoint x="570" y="340" as="sourcePoint"/>
                        <mxPoint x="560" y="240" as="targetPoint"/>
                    </mxGeometry>
                </mxCell>
                <mxCell id="29" value="searchin_database()" style="edgeLabel;resizable=0;html=1;align=center;verticalAlign=middle;" connectable="0" vertex="1" parent="28">
                    <mxGeometry relative="1" as="geometry"/>
                </mxCell>
                <mxCell id="32" value="" style="endArrow=classic;html=1;exitX=-0.003;exitY=0.989;exitDx=0;exitDy=0;exitPerimeter=0;" edge="1" parent="1" source="22" target="12">
                    <mxGeometry relative="1" as="geometry">
                        <mxPoint x="290" y="240" as="sourcePoint"/>
                        <mxPoint x="390" y="240" as="targetPoint"/>
                    </mxGeometry>
                </mxCell>
                <mxCell id="33" value="product_delivery()" style="edgeLabel;resizable=0;html=1;align=center;verticalAlign=middle;" connectable="0" vertex="1" parent="32">
                    <mxGeometry relative="1" as="geometry"/>
                </mxCell>
                <mxCell id="34" value="" style="endArrow=classic;html=1;exitX=0.529;exitY=0.648;exitDx=0;exitDy=0;exitPerimeter=0;" edge="1" parent="1" source="12" target="3">
                    <mxGeometry relative="1" as="geometry">
                        <mxPoint x="290" y="240" as="sourcePoint"/>
                        <mxPoint x="390" y="240" as="targetPoint"/>
                    </mxGeometry>
                </mxCell>
                <mxCell id="35" value="payment()" style="edgeLabel;resizable=0;html=1;align=center;verticalAlign=middle;" connectable="0" vertex="1" parent="34">
                    <mxGeometry relative="1" as="geometry"/>
                </mxCell>
                <mxCell id="49" value="&lt;span style=&quot;color: rgb(240, 240, 240); font-family: Helvetica; font-size: 12px; font-style: normal; font-variant-ligatures: normal; font-variant-caps: normal; font-weight: 400; letter-spacing: normal; orphans: 2; text-align: center; text-indent: 0px; text-transform: none; widows: 2; word-spacing: 0px; -webkit-text-stroke-width: 0px; background-color: rgb(42, 37, 47); text-decoration-thickness: initial; text-decoration-style: initial; text-decoration-color: initial; float: none; display: inline !important;&quot;&gt;Fashion Rental and clothing swapping platform&lt;/span&gt;" style="text;whiteSpace=wrap;html=1;" vertex="1" parent="1">
                    <mxGeometry x="210" y="20" width="280" height="40" as="geometry"/>
                </mxCell>
            </root>
        </mxGraphModel>
    </diagram>
</mxfile>